<svg enable-background="new 0 0 512 512" height="512" viewBox="0 0 512 512" width="512" xmlns="http://www.w3.org/2000/svg"><path d="m464.57 61.334-55.616 319.808-194.06 69.524-167.464-69.524 17.032-82.385h71.263l-6.952 35.282 101.156 38.587 116.538-38.587 16.34-84.384h-289.74l13.903-71.261h290.001l9.124-45.799h-289.739l14.166-71.262h354.048z" fill="#2965f1"/><path d="m214.895 460.666c-1.305 0-2.608-.256-3.834-.765l-167.466-69.524c-4.429-1.839-6.93-6.563-5.958-11.26l17.032-82.385c.96-4.645 5.05-7.976 9.793-7.976h71.263c2.991 0 5.825 1.339 7.725 3.649 1.899 2.31 2.665 5.35 2.087 8.284l-5.322 27.01 89.952 34.313 107.597-35.627 12.922-66.731h-277.619c-2.988 0-5.819-1.336-7.718-3.642-1.9-2.306-2.669-5.34-2.097-8.273l13.903-71.261c.916-4.696 5.03-8.085 9.815-8.085h281.797l5.14-25.799h-277.551c-2.994 0-5.83-1.341-7.729-3.656-1.899-2.314-2.662-5.357-2.079-8.294l14.166-71.262c.93-4.68 5.037-8.05 9.808-8.05h354.048c2.952 0 5.753 1.304 7.653 3.563 1.899 2.259 2.704 5.242 2.199 8.15l-55.616 319.807c-.617 3.546-3.092 6.487-6.479 7.701l-194.06 69.524c-1.091.394-2.232.589-3.372.589zm-155.999-85.592 156.264 64.874 184.94-66.257 52.581-302.357h-333.951l-10.19 51.262h277.556c2.994 0 5.832 1.342 7.731 3.657s2.661 5.36 2.076 8.296l-9.124 45.799c-.933 4.678-5.038 8.046-9.808 8.046h-281.763l-10.001 51.261h277.6c2.985 0 5.814 1.333 7.714 3.637 1.899 2.303 2.671 5.333 2.104 8.264l-16.34 84.384c-.688 3.552-3.24 6.455-6.674 7.592l-116.539 38.587c-2.186.723-4.556.67-6.707-.149l-101.156-38.587c-4.551-1.736-7.189-6.498-6.248-11.277l4.601-23.349h-50.956z" fill="#1f4cb5"/></svg>
