<svg viewBox="0 0 25 25" xmlns="http://www.w3.org/2000/svg"><circle cx="12.5" cy="12.5" fill="#525967" r="7.85"/><path d="m12.5 5.25a7.25 7.25 0 1 1 -7.25 7.25 7.26 7.26 0 0 1 7.25-7.25m0-.6a7.85 7.85 0 1 0 7.85 7.85 7.85 7.85 0 0 0 -7.85-7.85z" fill="#454b57"/><path d="m0 0h25v25h-25z" fill="none"/><path d="m11 17.11a1.54 1.54 0 0 0 1.54-1.54v-1.57h-1.54a1.54 1.54 0 0 0 0 3.08z" fill="#0acf83"/><path d="m9.42 12.5a1.54 1.54 0 0 1 1.58-1.5h1.5v3h-1.5a1.54 1.54 0 0 1 -1.58-1.5z" fill="#a259ff"/><path d="m9.42 9.42a1.54 1.54 0 0 1 1.58-1.53h1.5v3.11h-1.5a1.54 1.54 0 0 1 -1.58-1.58z" fill="#f24e1e"/><path d="m12.5 7.89h1.5a1.54 1.54 0 0 1 0 3.11h-1.5z" fill="#ff7262"/><path d="m15.58 12.5a1.54 1.54 0 1 1 -1.58-1.5 1.54 1.54 0 0 1 1.58 1.5z" fill="#1abcfe"/></svg>
