<svg enable-background="new 0 0 512 512" height="512" viewBox="0 0 512 512" width="512" xmlns="http://www.w3.org/2000/svg"><path d="m61.571 225.375c0 22.589 14.465 53.57 37.055 61.161v.893c-16.786 7.409-21.429 45.177.893 58.749v.893c-24.375 8.036-40.447 23.482-40.447 50.18 0 45.982 43.572 58.749 81.696 58.749 46.429 0 80.982-16.697 80.982-67.857 0-62.946-90.178-39.73-90.178-73.929 0-12.052 6.427-16.694 17.588-19.018 37.055-6.873 60.268-35.713 60.268-73.392 0-6.517-1.34-12.679-3.571-18.749 5.982-1.34 11.786-2.947 17.59-4.911v-45.09c-15.358 6.072-31.875 10.536-48.661 10.536-48.036-27.679-113.215 1.161-113.215 61.785z" fill="#f05033"/><path d="m140.768 465.999c-57.417 0-91.696-25.7-91.696-68.749 0-17.429 6.166-39.791 33.274-53.837-5.785-8.345-8.621-19.057-7.856-30.751.59-9.023 3.37-17.262 7.693-23.606-19.201-14.051-30.611-41.508-30.611-63.681 0-23.734 9.192-45.184 25.884-60.397 15.53-14.155 36.09-21.95 57.893-21.95 14.618 0 29.063 3.631 41.958 10.525 12.834-.374 26.758-3.589 42.463-9.799 3.079-1.218 6.562-.832 9.3 1.03s4.377 4.958 4.377 8.27v45.09c0 4.288-2.733 8.098-6.795 9.472-2.775.939-5.558 1.805-8.381 2.607.775 3.896 1.158 7.737 1.158 11.581 0 42.806-26.816 75.452-68.33 83.202-9.12 1.916-9.526 4.346-9.526 9.207 0 6.302 10.359 9.42 27.42 13.805 13.215 3.397 28.192 7.247 40.283 15.502 14.913 10.182 22.475 25.194 22.475 44.622-.001 35.518-15.786 77.857-90.983 77.857zm-5.42-302.971c-30.917 0-63.776 21.851-63.776 62.347 0 19.6 12.932 45.866 30.24 51.682 4.072 1.368 6.815 5.185 6.815 9.479v.893c0 3.961-2.338 7.549-5.962 9.148-3.534 1.56-7.615 8.185-8.217 17.391-.257 3.931-.276 17.255 10.267 23.665 2.983 1.814 4.805 5.054 4.805 8.545v.893c0 4.316-2.77 8.146-6.869 9.497-22.908 7.553-33.578 20.479-33.578 40.683 0 42.416 44.92 48.749 71.696 48.749 63.624 0 70.982-33.021 70.982-57.857 0-26.5-18.901-33.341-47.737-40.753-19.894-5.114-42.441-10.91-42.441-33.176 0-23.489 19.231-27.492 25.55-28.808.071-.015.143-.029.214-.042 32.131-5.96 52.091-30.314 52.091-63.56 0-4.881-.967-9.886-2.957-15.299-.994-2.705-.773-5.707.605-8.236 1.379-2.53 3.783-4.342 6.595-4.972 3.358-.752 6.596-1.579 9.775-2.496v-23.597c-13.754 4.288-26.5 6.386-38.661 6.386-1.752 0-3.474-.46-4.993-1.335-10.475-6.037-22.386-9.227-34.444-9.227z" fill="#b43c26"/><path d="m137.018 256c-19.643 0-27.945-11.606-27.945-30.178 0-44.018 54.463-43.571 54.463-.447-.001 18.125-7.142 30.625-26.518 30.625z" fill="#b43c26"/><path d="m452.929 300.195v43.751c-11.876 6.517-27.231 8.749-40.627 8.749-47.767 0-53.392-37.68-53.392-76.516v-78.305h.446v-.892c-6.25 0-6.517-1.43-21.428.892v-42.41h21.428c0-19.911.269-27.679-1.34-36.785h50.627c-1.786 12.322-1.34 24.554-1.34 36.785h45.535v42.41s-17.233-.892-45.535-.892v81.337c0 13.216 2.945 29.288 19.464 29.288 8.75.001 19.017-2.499 26.162-7.412z" fill="#f05033"/><path d="m412.302 362.695c-25.515 0-43.512-9.792-53.492-29.104-8.724-16.879-9.899-38.494-9.899-57.412v-69.562c-2.374.145-5.445.516-9.443 1.138-2.89.451-5.824-.386-8.043-2.285-2.218-1.9-3.495-4.675-3.495-7.596v-42.41c0-5.523 4.478-10 10-10h11.441c.021-12.392-.041-18.476-1.201-25.046-.514-2.911.286-5.901 2.187-8.166 1.899-2.265 4.705-3.573 7.661-3.573h50.627c2.902 0 5.662 1.261 7.562 3.456 1.899 2.195 2.751 5.106 2.335 7.979-1.205 8.315-1.314 16.646-1.281 25.351h35.58c5.522 0 10 4.477 10 10v42.41c0 2.742-1.126 5.363-3.114 7.251-1.987 1.888-4.675 2.88-7.401 2.736-.149-.008-13.271-.672-35.02-.84v71.298c0 19.288 6.632 19.288 9.464 19.288 7.457 0 15.501-2.219 20.495-5.653 3.06-2.104 7.033-2.341 10.321-.61 3.287 1.729 5.345 5.137 5.345 8.851v43.751c0 3.65-1.989 7.011-5.189 8.767-15.038 8.25-33.011 9.981-45.44 9.981zm-43.392-161.857v75.341c0 49.109 11.354 66.516 43.392 66.516 11.67 0 22.307-1.787 30.627-5.091v-22.16c-5.189 1.404-10.711 2.164-16.161 2.164-8.859 0-29.464-3.828-29.464-39.288v-81.337c0-5.523 4.478-10 10-10 15.481 0 27.614.261 35.535.503v-22.021h-35.535c-5.522 0-10-4.477-10-10 0-2.017-.013-4.034-.024-6.052-.041-6.77-.083-13.689.333-20.733h-28.473c.254 5.173.242 11.145.227 19.388-.005 2.268-.01 4.723-.01 7.397 0 5.523-4.478 10-10 10h-11.428v21.176c1.096-.063 2.115-.093 3.079-.093 2.05 0 3.579.133 4.929.251 1.178.103 2.108.184 3.42.184 5.522 0 10 4.477 10 10v.892c-.001 1.032-.157 2.027-.447 2.963z" fill="#b43c26"/><path d="m308.91 88.769c0 16.697-12.945 32.321-30.177 32.321-17.68 0-30.805-15.356-30.805-32.321 0-17.231 12.945-32.768 30.805-32.768 17.678 0 30.177 16.071 30.177 32.768z" fill="#f05033"/><path d="m278.733 131.09c-22.5 0-40.805-18.985-40.805-42.321 0-23.582 18.305-42.768 40.805-42.768 22.153 0 40.177 19.186 40.177 42.768 0 22.94-18.398 42.321-40.177 42.321zm0-65.089c-12.851 0-20.805 11.818-20.805 22.768 0 10.735 7.954 22.321 20.805 22.321 12.069 0 20.177-11.542 20.177-22.321 0-10.996-8.107-22.768-20.177-22.768z" fill="#b43c26"/><path d="m307.929 155.286c-1.607 13.036-1.428 178.392 0 194.464h-54.109c1.429-16.16 1.607-181.249 0-194.464z" fill="#f05033"/><g fill="#b43c26"><path d="m307.948 359.75c-.006 0-.014 0-.02 0h-54.108c-2.805 0-5.481-1.179-7.376-3.247-1.894-2.069-2.832-4.839-2.585-7.634 1.475-16.683 1.504-180.292.034-192.375-.346-2.842.543-5.695 2.441-7.838s4.623-3.37 7.486-3.37h54.108c2.865 0 5.593 1.229 7.491 3.375 1.898 2.147 2.784 5.004 2.434 7.848-1.467 11.894-1.452 172.214-.01 191.784.069.476.104.962.104 1.456.001 5.523-4.475 10.001-9.999 10.001zm-43.741-20h33.332c-.856-35.292-1.122-138.705-.103-174.464h-33.128c1.012 35.755.749 139.19-.101 174.464z"/><path d="m149.018 371.625c15.18 0 36.786 2.678 36.786 22.32 0 19.465-17.41 23.482-33.66 23.482-15.446 0-38.661-2.411-38.661-22.5.089-19.91 19.732-23.302 35.535-23.302z"/></g></svg>
