<svg enable-background="new 0 0 512 512" height="512" viewBox="0 0 512 512" width="512" xmlns="http://www.w3.org/2000/svg"><path d="m70.857 40 33.653 381.664 151.009 50.336 151.971-50.336 33.653-381.664z" fill="#e44d26"/><path d="m255.519 482c-1.068 0-2.136-.171-3.162-.513l-151.008-50.336c-3.778-1.26-6.449-4.642-6.799-8.609l-33.654-381.663c-.246-2.794.692-5.563 2.586-7.632s4.57-3.247 7.375-3.247h370.285c2.805 0 5.48 1.178 7.375 3.247s2.833 4.838 2.586 7.632l-33.653 381.663c-.35 3.975-3.029 7.36-6.816 8.615l-151.971 50.336c-1.021.338-2.083.507-3.144.507zm-141.623-67.748 141.633 47.21 142.577-47.224 32.116-364.238h-348.444z" fill="#ab3a1d"/><path d="m368.05 163.333h-177.236l3.955 47.635h169.327l-13.115 143.1-94.403 26.037v.288h-1.059l-95.176-26.325-5.785-64.068h45.997l3.375 27.713 51.589 13.982 51.781-13.982 5.787-59.977h-160.941l-12.342-140.399h232.489z" fill="#fff"/><path d="m256.578 390.393h-1.06c-.901 0-1.797-.122-2.666-.362l-95.176-26.324c-4.013-1.109-6.919-4.591-7.293-8.738l-5.785-64.068c-.252-2.797.683-5.571 2.577-7.646 1.895-2.073 4.574-3.254 7.382-3.254h45.997c5.055 0 9.315 3.772 9.927 8.791l2.561 21.031 42.481 11.514 42.487-11.473 4.064-42.127h-149.928c-5.184 0-9.508-3.961-9.961-9.124l-12.343-140.399c-.246-2.794.693-5.563 2.587-7.63 1.894-2.068 4.57-3.246 7.374-3.246h232.489c2.812 0 5.494 1.184 7.389 3.262s2.827 4.857 2.569 7.657l-4.243 45.996c-.475 5.145-4.791 9.082-9.958 9.082h-166.37l2.294 27.635h160.123c2.811 0 5.492 1.183 7.387 3.259s2.828 4.854 2.571 7.653l-13.114 143.1c-.38 4.146-3.287 7.621-7.299 8.728l-92.218 25.435c-1.436.794-3.087 1.248-4.845 1.248zm-86.898-44.118 85.852 23.745 86.123-23.753 11.483-125.3h-158.369c-5.202 0-9.535-3.988-9.966-9.173l-3.954-47.635c-.231-2.786.714-5.542 2.608-7.6s4.562-3.228 7.358-3.228h168.115l2.398-25.996h-210.607l10.585 120.399h151.781c2.819 0 5.508 1.19 7.403 3.277s2.821 4.877 2.551 7.683l-5.787 59.977c-.4 4.146-3.327 7.608-7.347 8.694l-51.781 13.982c-1.712.462-3.513.461-5.224-.003l-51.589-13.982c-3.928-1.064-6.818-4.402-7.311-8.442l-2.303-18.92h-26.197z" fill="#ab3a1d"/></svg>
