<svg enable-background="new 0 0 512 512" height="512" viewBox="0 0 512 512" width="512" xmlns="http://www.w3.org/2000/svg"><path d="m40.001 40h431.998v432h-431.998z" fill="#f0db4f"/><path d="m471.999 482h-431.998c-5.523 0-10-4.478-10-10v-432c0-5.523 4.477-10 10-10h431.998c5.522 0 10 4.477 10 10v432c0 5.522-4.478 10-10 10zm-421.998-20h411.998v-412h-411.998z" fill="#b4a43b"/><path d="m261.597 376.922c0 42.041-24.687 61.232-60.655 61.232-32.495 0-51.298-16.779-60.942-37.123l33.074-19.963c6.364 11.283 12.15 20.828 26.132 20.828 13.307 0 21.794-5.207 21.794-25.553v-137.99h40.596v138.569z" fill="#323330"/><path d="m200.942 448.154c-32.031 0-56.883-15.214-69.978-42.84-2.2-4.64-.527-10.191 3.869-12.845l33.074-19.963c2.315-1.396 5.095-1.799 7.71-1.109 2.615.687 4.839 2.403 6.167 4.758 6.879 12.195 10 15.741 17.422 15.741 7.103 0 11.794 0 11.794-15.553v-137.99c0-5.523 4.477-10 10-10h40.596c5.522 0 10 4.477 10 10v138.568c.001 44.604-26.412 71.233-70.654 71.233zm-47.507-43.551c10.309 15.638 26.249 23.552 47.507 23.552 23.108 0 50.655-8.889 50.655-51.232v-128.569h-20.597v127.99c0 23.591-10.697 35.553-31.794 35.553-15.078 0-23.611-8.325-29.533-17.095z" fill="#b4a43b"/><path d="m371.136 438.154c-37.704 0-62.1-17.938-73.96-41.465l33.074-19.094c8.679 14.176 20.057 24.686 40.018 24.686 16.779 0 27.577-8.389 27.577-20.055 0-13.889-10.991-18.803-29.601-27l-10.125-4.34c-29.314-12.439-48.696-28.158-48.696-61.232 0-30.471 23.238-53.615 59.397-53.615 25.843 0 44.358 8.968 57.665 32.498l-31.628 20.248c-6.942-12.439-14.464-17.355-26.132-17.355-11.861 0-19.383 7.521-19.383 17.355 0 12.152 7.521 17.07 24.976 24.686l10.124 4.34c34.521 14.754 53.903 29.895 53.903 63.836.001 36.449-28.736 56.507-67.209 56.507z" fill="#323330"/><path d="m371.136 448.154c-37.632 0-67.844-17.117-82.89-46.964-2.387-4.734-.662-10.51 3.93-13.161l33.074-19.094c4.694-2.711 10.696-1.186 13.528 3.438 8.657 14.14 17.779 19.907 31.489 19.907 8.749 0 17.577-3.109 17.577-10.055 0-6.708-4.783-9.546-23.632-17.849l-10.033-4.3c-27.061-11.482-54.757-28.842-54.757-70.424 0-17.8 6.866-33.98 19.333-45.561 12.716-11.811 30.027-18.054 50.064-18.054 30.782 0 51.872 11.939 66.369 37.575 2.614 4.622 1.16 10.481-3.313 13.345l-31.628 20.248c-2.322 1.487-5.154 1.949-7.828 1.276-2.674-.672-4.952-2.417-6.296-4.825-5.769-10.337-10.386-12.229-17.399-12.229-5.875 0-9.383 2.75-9.383 7.355 0 4.891.807 7.593 18.975 15.52l10.065 4.314c37.016 15.82 59.963 33.557 59.963 73.027 0 20.563-7.933 37.763-22.939 49.738-13.747 10.974-32.512 16.773-54.269 16.773zm-60.193-47.866c12.658 18.05 33.678 27.866 60.192 27.866 27.657 0 57.21-12.218 57.21-46.508 0-25.888-11.623-39.165-47.833-54.641l-10.135-4.344c-14.578-6.36-31.035-13.541-31.035-33.877 0-15.851 12.357-27.355 29.383-27.355 12.129 0 21.365 4.281 28.977 13.66l14.914-9.547c-10.298-13.581-23.865-19.503-43.796-19.503-29.546 0-49.397 17.528-49.397 43.615 0 24.748 11.547 38.849 42.603 52.027l10.158 4.354c19.178 8.447 35.661 15.708 35.661 36.191 0 17.695-15.452 30.055-37.577 30.055-21.777 0-34.746-10.664-43.036-21.396z" fill="#b4a43b"/></svg>
