<svg enable-background="new 0 0 512 512" height="512" viewBox="0 0 512 512" width="512" xmlns="http://www.w3.org/2000/svg"><path d="m33 106 120 230 326-80-50-70-70 10 110 160-150 50-176-300z" fill="#f35045"/><path d="m319.001 416.001c-3.471 0-6.792-1.814-8.626-4.94l-53.019-90.373-101.973 25.024c-4.471 1.1-9.118-1.002-11.249-5.086l-120-230c-1.618-3.1-1.498-6.819.314-9.809 1.813-2.991 5.055-4.817 8.552-4.817h110c3.548 0 6.83 1.88 8.625 4.94l115.439 196.772 128.113-31.438-44.418-64.608c-1.96-2.851-2.308-6.513-.918-9.682 1.39-3.168 4.318-5.394 7.744-5.883l70-10c3.692-.531 7.38 1.048 9.552 4.087l50 70c1.928 2.699 2.392 6.178 1.239 9.288-1.153 3.109-3.772 5.446-6.994 6.236l-53.324 13.086 49.182 71.537c1.78 2.589 2.24 5.864 1.241 8.843-.998 2.979-3.339 5.315-6.319 6.31l-150 50c-1.042.346-2.108.513-3.161.513zm-41.375-100.287 45.899 78.237 129.706-43.236-45.939-66.821zm-228.129-199.714 108.74 208.418 88.559-21.731-109.523-186.687zm326.877 87.62 39.57 57.557 46.342-11.372-37.89-53.046z" fill="#b63c34"/></svg>
