<svg enable-background="new 0 0 512 512" height="512" viewBox="0 0 512 512" width="512" xmlns="http://www.w3.org/2000/svg"><path d="m255.908 485.999c-6.115 0-12.322-1.642-17.708-4.746l-56.319-33.316c-8.397-4.747-4.29-6.389-1.551-7.303 11.227-3.925 13.509-4.745 25.466-11.592 1.278-.729 2.922-.457 4.199.366l43.266 25.648c1.553.912 3.741.912 5.202 0l168.592-97.304c1.553-.913 2.555-2.738 2.555-4.563v-194.606c0-1.917-1.002-3.651-2.645-4.654l-168.502-97.213c-1.551-.913-3.649-.913-5.202 0l-168.408 97.303c-1.645.913-2.647 2.738-2.647 4.655v194.515c0 1.825 1.003 3.65 2.647 4.473l46.188 26.653c25.102 12.504 40.436-2.191 40.436-17.068v-192.052c0-2.738 2.19-4.837 4.93-4.837h21.359c2.646 0 4.928 2.099 4.928 4.837v192.143c0 33.407-18.256 52.576-49.928 52.576-9.768 0-17.436 0-38.794-10.588l-44.18-25.467c-10.953-6.299-17.707-18.074-17.707-30.76v-194.516c0-12.596 6.754-24.462 17.707-30.76l168.408-97.304c10.679-6.024 24.826-6.024 35.415 0l168.595 97.394c10.952 6.298 17.706 18.073 17.706 30.761v194.515c0 12.596-6.754 24.371-17.706 30.761l-168.595 97.303c-5.385 3.104-11.502 4.746-17.707 4.746z" fill="#539e43"/><path d="m255.908 495.999c-7.949 0-15.799-2.104-22.702-6.082-.033-.02-.065-.038-.097-.058l-56.238-33.268c-2.767-1.565-10.742-6.168-9.942-14.461.499-5.169 3.918-8.855 10.164-10.959 10.811-3.779 12.497-4.374 23.733-10.808 2.005-1.145 4.294-1.745 6.632-1.745 2.708 0 5.386.78 7.758 2.26l40.678 24.114 163.715-94.489v-189.273l-163.746-94.469-163.658 94.559v189.039l43.556 25.135c4.779 2.346 9.169 3.534 13.052 3.534 8.7 0 12.662-6.106 12.662-11.781v-192.052c0-8.181 6.697-14.837 14.93-14.837h21.359c8.231 0 14.928 6.656 14.928 14.837v192.143c0 18.998-5.477 34.802-15.838 45.705-10.489 11.037-25.735 16.871-44.089 16.871-10.613 0-19.778 0-43.235-11.628-.188-.093-.372-.192-.553-.296l-44.18-25.467c-14.006-8.055-22.713-23.163-22.713-39.424v-194.516c0-16.262 8.707-31.371 22.722-39.429l168.391-97.294c.03-.017.06-.034.09-.051 6.736-3.799 14.569-5.808 22.654-5.808 8.098 0 15.919 2.015 22.618 5.826l168.652 97.427c13.998 8.05 22.704 23.159 22.704 39.42v194.515c0 16.145-8.686 31.241-22.667 39.398l-168.635 97.326c-6.905 3.983-14.756 6.086-22.705 6.086zm-12.668-23.384c3.805 2.183 8.301 3.384 12.668 3.384 4.448 0 8.844-1.179 12.712-3.409l168.591-97.301c7.821-4.563 12.705-13.04 12.705-22.1v-194.515c0-9.125-4.863-17.591-12.691-22.092l-168.612-97.404c-3.634-2.067-8.036-3.177-12.672-3.177-4.632 0-9.052 1.108-12.787 3.205l-168.36 97.275c-7.847 4.512-12.71 12.977-12.71 22.102v194.517c0 9.124 4.863 17.589 12.692 22.091l43.915 25.314c19.04 9.409 25.029 9.409 34.074 9.409 33 0 39.928-23.153 39.928-42.576v-186.98h-11.217v186.889c0 15.622-12.217 31.781-32.662 31.781-7.077 0-14.557-1.938-22.232-5.762-.183-.091-.362-.188-.539-.29l-46.007-26.549c-4.769-2.551-7.83-7.703-7.83-13.238v-194.515c0-5.559 2.946-10.661 7.696-13.344l168.356-97.273c2.232-1.313 4.884-2.026 7.605-2.026 2.722 0 5.375.714 7.671 2.066l168.428 97.17c.072.041.144.083.214.127 4.655 2.842 7.434 7.772 7.434 13.188v194.607c0 5.417-2.868 10.469-7.485 13.184l-168.56 97.285c-2.265 1.363-4.911 2.083-7.668 2.083-2.742 0-5.405-.714-7.701-2.063l-40.679-24.114c-4.495 2.524-7.645 4.159-10.768 5.549z" fill="#3e7732"/><path d="m390.724 290.421c0-32.521-22.007-41.16-68.219-47.271-46.784-6.195-51.511-9.374-51.511-20.295 0-9.046 3.994-21.109 38.633-21.109 30.891 0 42.3 6.684 47.026 27.548.408 1.956 2.202 3.423 4.238 3.423h19.563c1.222 0 2.362-.489 3.178-1.386.815-.896 1.222-2.119 1.14-3.342-3.014-35.941-26.896-52.65-75.146-52.65-42.952 0-68.544 18.094-68.544 48.494 0 32.927 25.51 42.057 66.669 46.13 49.31 4.81 53.14 12.063 53.14 21.763 0 16.791-13.527 23.961-45.233 23.961-39.855 0-48.576-10.024-51.511-29.828-.326-2.119-2.119-3.668-4.319-3.668h-19.479c-2.445 0-4.319 1.957-4.319 4.318 0 25.35 13.774 55.587 79.712 55.587 47.596-.081 74.982-18.912 74.982-51.675z" fill="#539e43"/><path d="m315.758 352.095c-.005 0-.011 0-.017 0-78.057 0-89.712-41.093-89.712-65.587 0-7.896 6.424-14.318 14.319-14.318h19.479c7.146 0 13.119 5.108 14.203 12.146 1.771 11.953 3.164 21.35 41.627 21.35 35.233 0 35.233-9.082 35.233-13.961 0-2.378 0-2.471-2.617-3.805-6.379-3.248-20.339-5.942-41.493-8.005-39.323-3.892-75.698-13.378-75.698-56.083 0-36.081 30.097-58.494 78.544-58.494 26.477 0 46.192 4.794 60.273 14.656 14.722 10.311 23.078 26.178 24.837 47.159.005.055.009.111.013.166.265 3.938-1.092 7.854-3.722 10.742-2.688 2.957-6.543 4.655-10.573 4.655h-12.739c19.877 7.636 33.008 21.009 33.008 47.705.001 38.528-31.762 61.584-84.965 61.674zm-69.441-59.906c1.045 9.989 4.936 18.13 11.604 24.251 11.312 10.386 30.759 15.652 57.804 15.654 24.274-.041 64.998-5.509 64.998-41.674 0-21.759-8.994-30.674-59.53-37.358-42.822-5.67-60.199-8.824-60.199-30.209 0-20.643 16.362-31.109 48.633-31.109 28.559 0 48.023 5.318 55.642 30.971h8.796c-3.2-19.365-15.354-37.378-64.438-37.378-17.603 0-58.544 3.751-58.544 38.494 0 19.763 9.188 31.382 57.653 36.179 42.108 4.106 62.155 9.9 62.155 31.714 0 33.961-40.127 33.961-55.233 33.961-38.17 0-55.166-9.181-60.515-33.496zm34.764-67.633c4.549 3.623 32.204 7.285 42.736 8.68 9.125 1.207 17.906 2.535 26.068 4.318-1.446-1.727-2.498-3.804-2.998-6.106-3.111-13.698-7.605-19.702-37.261-19.702-17.114 0-23.739 3.167-26.164 5.054-1.602 1.246-2.469 2.58-2.469 6.055.001.905.048 1.424.088 1.701z" fill="#3e7732"/></svg>
