<svg enable-background="new 0 0 100 100" height="100" viewBox="0 0 100 100" width="100" xmlns="http://www.w3.org/2000/svg"><circle cx="50" cy="50" fill="#3a66af" r="45"/><g fill="#fff"><path d="m39.636 33.353c-2.925 0-5.731.059-7.62.148-.236 0-.649.148-.649.356v31.929c0 .268.117.355.355.355h4.516c.269 0 .356-.119.356-.355v-11.415c.797 0 1.182.059 2.303.059 6.675 0 12.108-3.24 12.108-10.791 0-5.768-3.191-10.286-11.369-10.286zm-.621 16.35c-1.18 0-1.712 0-2.392-.061v-11.474c.532-.029 1.653-.089 2.835-.089 3.929 0 6.261 1.902 6.261 5.678 0 4.727-3.248 5.946-6.704 5.946z"/><path d="m62.552 51.724c-3.131-1.635-3.661-2.379-3.661-3.449 0-.98.798-2.168 3.129-2.168 1.921 0 3.84.504 5.14 1.336.296.09.441-.059.441-.295v-4.074c0-.208-.058-.445-.293-.594-.974-.446-2.747-.833-5.288-.833-5.168 0-8.15 3.181-8.15 7.015 0 3.42 1.741 5.471 5.936 7.492 2.984 1.545 3.662 2.498 3.662 3.568 0 1.336-.974 2.316-3.307 2.316-1.949 0-4.076-.533-5.937-1.752-.206-.148-.354-.061-.354.238v4.369c0 .238.03.387.236.477 1.271.74 3.484 1.277 6.055 1.277 4.872 0 8.475-2.557 8.475-7.314-.001-3.179-1.448-5.349-6.084-7.609z"/></g></svg>
