<svg enable-background="new 0 0 512 512" height="512" viewBox="0 0 512 512" width="512" xmlns="http://www.w3.org/2000/svg"><path d="m256.001 135.034c-127.003 0-230 54.121-230 120.965s102.997 120.967 230 120.967 229.998-54.123 229.998-120.967-102.995-120.965-229.998-120.965z" fill="#007aff"/><path d="m256.001 386.966c-63.026 0-122.435-12.986-167.28-36.566-46.894-24.656-72.72-58.182-72.72-94.4s25.826-69.744 72.72-94.4c44.846-23.579 104.253-36.565 167.28-36.565 63.026 0 122.434 12.986 167.279 36.565 46.894 24.656 72.719 58.182 72.719 94.4 0 36.219-25.825 69.744-72.719 94.4-44.845 23.579-104.253 36.566-167.279 36.566zm0-241.932c-59.843 0-115.945 12.169-157.973 34.267-39.999 21.031-62.027 48.27-62.027 76.698 0 28.429 22.028 55.667 62.028 76.698 42.027 22.099 98.129 34.269 157.972 34.269s115.944-12.17 157.972-34.268c39.998-21.032 62.026-48.271 62.026-76.699s-22.028-55.667-62.026-76.698c-42.028-22.097-98.129-34.267-157.972-34.267z" fill="#005cbf"/><path d="m182.063 246.043c-5.677 29.109-25.731 26.09-50.384 26.09l9.847-50.744c27.313.001 45.856-2.946 40.537 24.654zm-86.824 77.48h26.378l6.254-32.199c29.54 0 47.868 2.157 64.83-13.728 18.759-17.251 23.646-47.941 10.278-63.322-6.97-8.05-18.184-12.003-33.421-12.003h-50.816zm133.47-153.523h26.235l-6.253 32.199c22.64 0 43.628-1.653 53.763 7.691 10.638 9.775 5.535 22.281-5.966 81.291h-26.594c11.069-57.068 13.154-61.812 9.128-66.125-3.88-4.168-12.722-3.306-34.069-3.306l-13.513 69.431h-26.235zm159.492 76.043c-5.751 29.542-26.379 26.09-50.385 26.09l9.847-50.744c27.456.001 45.857-2.946 40.538 24.654zm-86.824 77.48h26.449l6.254-32.199c31.049 0 48.227 1.796 64.83-13.728 18.759-17.251 23.646-47.941 10.279-63.322-6.974-8.05-18.186-12.003-33.423-12.003h-50.816z" fill="#fff"/></svg>
