<svg enable-background="new 0 0 128 128" viewBox="0 0 128 128" xmlns="http://www.w3.org/2000/svg"><g clip-rule="evenodd"><path d="m0 0h128v128h-128z" fill="none"/><path d="m105.576 51.347-11.049-15.389 7.864-5.825 12.257 9.286zm-41.576 54.666-30.415-39.992h60.831zm-38.409-75.866 10.175 6.035-11.692 17.334-10.723-14.097zm21.013 9.844 37.349.297 10.489 14.609h-57.894zm-5.462-21.622h45.718l6.296 4.77-8.149 6.033-39.796-.314-10.049-5.96zm84.654 15.546-19.277-14.604c-.432-.454-.92-.826-1.456-1.101l-12.987-9.84c-.966-.729-2.142-1.125-3.352-1.125h-49.447c-1.21 0-2.389.396-3.352 1.125l-33.722 25.545c-2.451 1.857-2.93 5.354-1.067 7.803l58.443 76.844c2.224 2.925 6.617 2.925 8.842 0l58.445-76.844c1.861-2.449 1.381-5.946-1.07-7.803z" fill="#ffc100" fill-rule="evenodd"/></g></svg>
