<svg enable-background="new 0 0 512 512" height="512" viewBox="0 0 512 512" width="512" xmlns="http://www.w3.org/2000/svg"><path d="m256 36.001c-121.266 0-220 98.645-220 219.999 0 121.267 98.733 219.999 220 219.999s219.999-98.732 219.999-219.999c0-121.354-98.732-219.999-219.999-219.999zm-197.822 219.999c0-28.653 6.121-55.887 17.121-80.459l94.386 258.499c-66-32.113-111.507-99.799-111.507-178.04zm197.822 197.819c-19.428 0-38.145-2.837-55.888-8.07l59.346-172.45 60.767 166.595c.444.978.887 1.864 1.419 2.751-20.491 7.185-42.581 11.174-65.644 11.174zm27.232-290.519c11.887-.621 22.622-1.863 22.622-1.863 10.646-1.242 9.404-16.944-1.242-16.323 0 0-32.023 2.484-52.693 2.484-19.428 0-52.073-2.484-52.073-2.484-10.644-.621-11.886 15.702-1.242 16.323 0 0 10.114 1.242 20.76 1.863l30.781 84.45-43.29 129.782-72.032-214.232c11.888-.621 22.621-1.863 22.621-1.863 10.645-1.242 9.403-16.944-1.242-16.323 0 0-32.024 2.484-52.693 2.484-3.726 0-8.073-.089-12.774-.267 35.395-53.67 96.16-89.152 165.266-89.152 51.451 0 98.377 19.692 133.595 51.895-.887-.088-1.686-.178-2.573-.178-19.426 0-33.175 16.945-33.175 35.129 0 16.323 9.402 30.072 19.426 46.396 7.539 13.129 16.322 30.072 16.322 54.557 0 16.943-6.476 36.546-15.079 63.959l-19.694 65.911zm72.21 263.642 60.411-174.668c11.269-28.209 15.082-50.742 15.082-70.879 0-7.274-.444-14.016-1.331-20.315 15.435 28.21 24.216 60.501 24.216 94.92 0 73.01-39.562 136.7-98.378 170.942z" fill="#fff"/><path d="m256 480.999c-124.065 0-225-100.935-225-224.999 0-124.065 100.935-224.999 225-224.999s224.999 100.934 224.999 224.999c0 124.064-100.934 224.999-224.999 224.999zm0-439.998c-118.551 0-215 96.448-215 214.999s96.448 214.999 215 214.999c118.55 0 214.999-96.448 214.999-214.999s-96.448-214.999-214.999-214.999zm0 417.818c-19.408 0-38.688-2.784-57.302-8.274-1.309-.387-2.403-1.291-3.029-2.504s-.729-2.629-.285-3.919l59.346-172.45c.689-2.002 2.565-3.354 4.682-3.373h.046c2.1 0 3.977 1.312 4.697 3.287l60.699 166.408c.386.84.721 1.485 1.076 2.077.773 1.289.926 2.857.416 4.271-.511 1.413-1.63 2.522-3.049 3.021-21.677 7.602-44.319 11.456-67.297 11.456zm-49.435-16.454c16.126 4.284 32.731 6.454 49.436 6.454 20.028 0 39.786-3.079 58.817-9.16l-55.222-151.394zm-36.88-3.325c-.743 0-1.491-.165-2.187-.504-33.748-16.421-62.287-41.846-82.53-73.526-20.797-32.547-31.79-70.242-31.79-109.01 0-28.721 5.907-56.478 17.558-82.502.832-1.857 2.729-3.01 4.741-2.954 2.034.072 3.821 1.37 4.52 3.282l94.386 258.499c.699 1.915.166 4.062-1.348 5.428-.939.847-2.138 1.287-3.35 1.287zm-94.649-249.643c-7.874 21.256-11.858 43.603-11.858 66.603 0 70.136 36.989 133.233 97.363 167.573zm280.407 242.545c-1.134 0-2.261-.385-3.177-1.139-1.615-1.327-2.232-3.52-1.55-5.496l60.411-174.667c.025-.074.054-.148.082-.221 10.047-25.149 14.726-47.082 14.726-69.024 0-6.973-.432-13.574-1.282-19.619-.337-2.392 1.085-4.682 3.377-5.442 2.298-.761 4.801.228 5.961 2.346 16.243 29.688 24.829 63.341 24.829 97.32 0 36.123-9.621 71.582-27.823 102.543-17.657 30.035-42.914 55.182-73.039 72.721-.781.455-1.65.678-2.515.678zm65.097-177.922-55.708 161.071c52.135-35.728 83.988-95.461 83.988-159.091 0-23.823-4.439-47.478-12.962-69.574-.659 21.541-5.574 43.174-15.318 67.594zm-213.685 128.512c-2.147 0-4.055-1.371-4.739-3.406l-72.032-214.232c-.499-1.482-.275-3.112.604-4.405s2.313-2.1 3.874-2.182c11.581-.605 22.201-1.825 22.307-1.837 2.83-.33 3.011-2.508 2.958-3.429-.052-.886-.449-2.946-3.016-2.946-.104 0-.209.003-.317.01-1.22.095-32.359 2.493-52.984 2.493-3.859 0-8.221-.091-12.963-.27-1.804-.068-3.432-1.104-4.257-2.71-.826-1.605-.722-3.532.272-5.04 37.742-57.231 101.084-91.399 169.438-91.399 50.803 0 99.447 18.895 136.969 53.205 1.59 1.453 2.069 3.761 1.192 5.728-.879 1.966-2.913 3.15-5.06 2.938l-.264-.026c-.707-.071-1.266-.127-1.816-.127-17.403 0-28.175 15.639-28.175 30.129 0 13.575 7.531 25.744 16.252 39.835.805 1.299 1.617 2.613 2.435 3.944.025.042.051.084.075.126 8.219 14.312 16.986 31.703 16.986 57.046 0 16.778-5.834 35.328-13.908 61.002l-1.4 4.454-19.674 65.846c-.624 2.087-2.526 3.53-4.705 3.567-.028.001-.058.001-.087.001-2.143 0-4.052-1.367-4.737-3.404l-71.59-212.546c-.499-1.482-.276-3.113.603-4.406.879-1.294 2.313-2.102 3.875-2.183 11.595-.606 22.202-1.825 22.308-1.837 2.83-.33 3.012-2.508 2.958-3.429-.051-.886-.448-2.946-3.017-2.946-.104 0-.209.003-.317.01-1.22.095-32.358 2.493-52.984 2.493-19.395 0-51.112-2.397-52.453-2.499-.013 0-.111-.002-.206-.002-2.806 0-3.028 2.748-3.044 3.298-.039 1.318.396 2.917 2.679 3.05.106.006.213.016.318.029.1.012 10.089 1.23 20.441 1.834 1.992.116 3.724 1.405 4.407 3.279l30.781 84.45c.387 1.062.403 2.223.045 3.294l-43.29 129.782c-.68 2.039-2.587 3.415-4.737 3.418-.001 0-.003 0-.005 0zm-65.214-214.644 65.195 193.899 38.014-113.964-29.065-79.742c-8.804-.614-16.453-1.52-17.644-1.664-8.065-.559-12.102-7.098-11.921-13.314.216-7.416 5.822-13.007 13.04-13.007.287 0 .581.008.877.025.413.031 32.77 2.476 51.782 2.476 20.235 0 51.988-2.445 52.306-2.469.401-.024.7-.033.995-.033 8.063 0 12.643 6.221 13 12.365.36 6.203-3.572 12.984-11.787 13.942-.364.042-7.39.849-16.38 1.485l64.483 191.448 15.188-50.832 1.422-4.525c7.808-24.824 13.448-42.759 13.448-58.002 0-22.845-8.057-38.822-15.621-52.002-.799-1.3-1.593-2.583-2.378-3.852-9.128-14.748-17.749-28.678-17.749-45.098 0-18.642 12.153-34.354 28.569-38.843-34.317-27.811-76.997-43.002-121.415-43.002-61.937 0-119.546 29.511-155.885 79.396 1.181.015 2.315.023 3.393.023 20.241 0 51.988-2.445 52.307-2.469.401-.024.7-.033.995-.033 8.062 0 12.642 6.221 12.999 12.365.361 6.203-3.572 12.984-11.786 13.942-.364.042-7.39.849-16.382 1.485z" fill="#32373c"/></svg>
